<svg width="18" height="20" viewBox="0 0 18 20" fill="none" xmlns="http://www.w3.org/2000/svg">
<path d="M3.14062 16.4453H4.3125V17.6172H3.14062V16.4453Z" fill="white"/>
<path d="M5.48438 16.4453H6.65625V17.6172H5.48438V16.4453Z" fill="white"/>
<path d="M3.14062 14.1016H4.3125V15.2734H3.14062V14.1016Z" fill="white"/>
<path d="M5.48438 14.1016H6.65625V15.2734H5.48438V14.1016Z" fill="white"/>
<path d="M3.14062 11.7578H4.3125V12.9297H3.14062V11.7578Z" fill="white"/>
<path d="M5.48438 11.7578H6.65625V12.9297H5.48438V11.7578Z" fill="white"/>
<path d="M7.82812 11.7578H9V12.9297H7.82812V11.7578Z" fill="white"/>
<path d="M7.82812 14.1016H9V17.6172H7.82812V14.1016Z" fill="white"/>
<path d="M11.3438 10.5859C11.3438 10.167 11.3438 6.53133 11.3438 5.89844H10.1719V4.6875H13.4637L12.9789 3.71797C12.6759 3.11184 12.5156 2.43609 12.5156 1.76383V1.75781C12.5156 0.788555 11.7271 0 10.7578 0H3.72656C2.7573 0 1.96875 0.788555 1.96875 1.75781V5.89844H0.796875V20H11.3438V18.7891H17.2031C17.2031 18.5554 17.2031 11.1795 17.2031 10.5859H11.3438ZM11.3438 1.75781V1.76383C11.3438 2.35633 11.4416 2.95059 11.63 3.51562H10.1719V1.75781C10.1719 1.43473 10.4347 1.17188 10.7578 1.17188C11.0809 1.17188 11.3438 1.43473 11.3438 1.75781ZM3.14062 1.75781C3.14062 1.43473 3.40348 1.17188 3.72656 1.17188H9.10078C9.03574 1.35527 9 1.55242 9 1.75781V5.89844H3.14062V1.75781ZM1.96875 7.07031H10.1719V9.41406H1.96875V7.07031ZM10.1719 18.8281H1.96875V10.5859H10.1719V18.8281ZM16.0312 17.6172H11.3438V14.1016H16.0312V17.6172ZM11.3438 12.9297V11.7578H16.0312V12.9297H11.3438Z" fill="white"/>
</svg>
