<svg width="20" height="20" viewBox="0 0 20 20" fill="none" xmlns="http://www.w3.org/2000/svg">
<path d="M0.585938 20H6.56551C6.8891 20 7.15145 19.7377 7.15145 19.4141V18.7612C7.15145 17.4067 6.3943 16.2256 5.28102 15.619C5.67641 15.1993 5.91949 14.6345 5.91949 14.0137C5.91949 12.7213 4.86809 11.6699 3.57574 11.6699C2.2834 11.6699 1.23199 12.7213 1.23199 14.0137C1.23199 14.6345 1.47508 15.1993 1.87047 15.619C0.757148 16.2256 0 17.4067 0 18.7612V19.4141C0 19.7377 0.262344 20 0.585938 20ZM2.40387 14.0137C2.40387 13.3675 2.92957 12.8418 3.57574 12.8418C4.22191 12.8418 4.74762 13.3675 4.74762 14.0137C4.74762 14.6598 4.22191 15.1855 3.57574 15.1855C2.92957 15.1855 2.40387 14.6598 2.40387 14.0137ZM3.57574 16.3574C4.83109 16.3574 5.97957 17.3415 5.97957 18.8281H1.17188C1.17188 17.3493 2.31367 16.3574 3.57574 16.3574Z" fill="white"/>
<path d="M18.1296 15.619C18.525 15.1993 18.7681 14.6345 18.7681 14.0137C18.7681 12.7213 17.7166 11.6699 16.4243 11.6699C15.132 11.6699 14.0806 12.7213 14.0806 14.0137C14.0806 14.6345 14.3236 15.1993 14.719 15.619C13.6058 16.2256 12.8486 17.4066 12.8486 18.7612V19.4141C12.8486 19.7377 13.1109 20 13.4345 20H19.4141C19.7377 20 20 19.7377 20 19.4141V18.7612C20 17.4067 19.2429 16.2256 18.1296 15.619ZM15.2524 14.0137C15.2524 13.3675 15.7781 12.8418 16.4243 12.8418C17.0704 12.8418 17.5961 13.3675 17.5961 14.0137C17.5961 14.6598 17.0704 15.1855 16.4243 15.1855C15.7781 15.1855 15.2524 14.6598 15.2524 14.0137ZM18.8281 18.8281H14.0204C14.0204 17.3493 15.1622 16.3574 16.4243 16.3574C17.6796 16.3574 18.8281 17.3414 18.8281 18.8281Z" fill="white"/>
<path d="M13.5757 7.74414V7.09133C13.5757 5.73676 12.8186 4.5557 11.7053 3.9491C12.1007 3.52934 12.3438 2.96457 12.3438 2.34375C12.3438 1.05141 11.2923 0 10 0C8.70766 0 7.65625 1.05141 7.65625 2.34375C7.65625 2.96457 7.89934 3.52934 8.29473 3.9491C7.18145 4.5557 6.4243 5.73676 6.4243 7.09133V7.74414C6.4243 8.06773 6.68664 8.33008 7.01024 8.33008H12.9898C13.3134 8.33008 13.5757 8.06773 13.5757 7.74414ZM8.82813 2.34375C8.82813 1.69758 9.35383 1.17188 10 1.17188C10.6462 1.17188 11.1719 1.69758 11.1719 2.34375C11.1719 2.98992 10.6462 3.51562 10 3.51562C9.35383 3.51562 8.82813 2.98992 8.82813 2.34375ZM12.4039 7.1582H7.59614C7.59614 5.67934 8.73793 4.6875 10 4.6875C11.2553 4.6875 12.4039 5.67148 12.4039 7.1582Z" fill="white"/>
<path d="M12.3671 14.8066C11.6016 15.0581 10.7944 15.1855 9.968 15.1855C9.17054 15.1855 8.38965 15.0664 7.64703 14.8316C7.3384 14.7341 7.00922 14.905 6.91168 15.2135C6.8141 15.522 6.98511 15.8513 7.29363 15.9489C8.15066 16.2199 9.05047 16.3574 9.96797 16.3574C10.9189 16.3574 11.8491 16.2102 12.7328 15.9199C13.0403 15.8189 13.2077 15.4878 13.1067 15.1804C13.0057 14.873 12.6746 14.7055 12.3671 14.8066Z" fill="white"/>
<path d="M4.59883 4.85586C3.95172 5.47965 3.4016 6.20481 2.96375 7.01125C2.51 7.84699 2.19547 8.73473 2.0289 9.64984C1.96363 10.0085 2.23883 10.3408 2.60605 10.3408C2.88371 10.3408 3.13035 10.1425 3.18183 9.85969C3.32613 9.06699 3.59926 8.29676 3.99359 7.57043C4.37418 6.86953 4.8514 6.24008 5.41211 5.69961C5.64508 5.47504 5.65191 5.1041 5.42734 4.8711C5.20273 4.63813 4.83183 4.63129 4.59883 4.85586Z" fill="white"/>
<path d="M15.4012 4.85586C15.1682 4.63125 14.7972 4.63813 14.5727 4.8711C14.3481 5.1041 14.3549 5.47504 14.5879 5.69961C15.1486 6.24008 15.6259 6.8695 16.0064 7.57043C16.4008 8.2968 16.6739 9.06703 16.8182 9.85969C16.8761 10.1777 17.1807 10.3892 17.4995 10.3312C17.8179 10.2733 18.029 9.96817 17.9711 9.64985C17.8045 8.73473 17.49 7.847 17.0363 7.01125C16.5984 6.20481 16.0483 5.47961 15.4012 4.85586Z" fill="white"/>
</svg>
