<svg width="20" height="20" viewBox="0 0 20 20" fill="none" xmlns="http://www.w3.org/2000/svg">
<path d="M3.125 10.9375H4.6875V9.375H3.125V10.9375ZM14.0625 3.125V2.34203C14.0625 1.05062 13.0119 0 11.7205 0H2.34203C1.05062 0 0 1.05062 0 2.34203V17.658C0 18.9494 1.05062 20 2.34203 20H11.7205C13.0119 20 14.0625 18.9494 14.0625 17.658V14.0625H20V3.125H14.0625ZM12.5 17.658C12.5 18.0878 12.1503 18.4375 11.7205 18.4375H2.34203C1.91219 18.4375 1.5625 18.0878 1.5625 17.658V2.34203C1.5625 1.91219 1.91219 1.5625 2.34203 1.5625H11.7205C12.1503 1.5625 12.5 1.91219 12.5 2.34203V17.658ZM18.4375 12.5H14.0625V7.8125H18.4375V12.5ZM18.4375 6.25H14.0625V4.6875H18.4375V6.25ZM6.25 17.1875H7.8125V15.625H6.25V17.1875ZM3.125 17.1875H4.6875V15.625H3.125V17.1875ZM3.125 14.0625H4.6875V12.5H3.125V14.0625ZM6.25 14.0625H7.8125V12.5H6.25V14.0625ZM9.375 10.9375H10.9375V9.375H9.375V10.9375ZM3.125 7.8125H10.9375V3.125H3.125V7.8125ZM4.6875 4.6875H9.375V6.25H4.6875V4.6875ZM9.375 17.1875H10.9375V15.625H9.375V17.1875ZM6.25 10.9375H7.8125V9.375H6.25V10.9375ZM9.375 14.0625H10.9375V12.5H9.375V14.0625Z" fill="white"/>
</svg>
