<svg width="39" height="49" viewBox="0 0 39 49" fill="none" xmlns="http://www.w3.org/2000/svg">
<path fill-rule="evenodd" clip-rule="evenodd" d="M27.36 18.2501H36.261C37.6704 18.2501 38.8213 19.4037 38.8213 20.8103V33.6118C38.8213 35.0212 37.6704 36.172 36.261 36.172H26.3903C27.2295 30.3481 27.6638 24.391 27.36 18.2501Z" fill="#FFF0AF"/>
<path fill-rule="evenodd" clip-rule="evenodd" d="M33.9113 18.2501H36.261C37.6704 18.2501 38.8213 19.4037 38.8213 20.8103V33.6118C38.8213 35.0212 37.6704 36.172 36.261 36.172H33.9113C35.3206 36.172 36.4715 35.0211 36.4715 33.6118V20.8104C36.4715 19.4037 35.3205 18.2501 33.9113 18.2501Z" fill="#FFE07D"/>
<path fill-rule="evenodd" clip-rule="evenodd" d="M4.60796 8.77634H24.171C25.8602 8.77634 27.0164 10.175 27.2428 11.8481C28.844 23.6797 27.416 34.8001 25.1941 45.5393C24.853 47.1938 23.8114 48.6111 22.1223 48.6111H6.65671C4.9676 48.6111 3.92591 47.1938 3.58489 45.5394C1.36296 34.8001 -0.0650251 23.6797 1.53614 11.8481C1.76255 10.175 2.91894 8.77634 4.60796 8.77634Z" fill="#365E7D"/>
<path fill-rule="evenodd" clip-rule="evenodd" d="M21.8213 8.77634H24.171C25.8602 8.77634 27.0164 10.175 27.2429 11.8481C28.844 23.6797 27.416 34.8001 25.1941 45.5393C24.8531 47.1938 23.8114 48.6111 22.1224 48.6111H19.7725C21.4616 48.6111 22.5033 47.1938 22.8443 45.5394C25.0663 34.8001 26.4943 23.6798 24.893 11.8482C24.6666 10.175 23.5104 8.77634 21.8213 8.77634Z" fill="#2B4D66"/>
<path fill-rule="evenodd" clip-rule="evenodd" d="M14.6386 14.3578H6.5448V2.83255C6.5448 2.34763 6.74193 1.92138 7.12823 1.60693L7.92217 0.962211C8.32447 0.637188 8.70002 0.645141 9.08904 0.962211L9.88288 1.60693C10.2692 1.92138 10.6422 1.93737 11.0498 1.60693L11.8438 0.962211C12.294 0.597145 12.6297 0.653187 13.0134 0.962211L13.8046 1.60693C14.3667 2.06256 14.8996 2.07051 15.4724 1.60693L16.2663 0.962211C16.65 0.653187 16.9831 0.597145 17.4333 0.962211L18.2272 1.60693C18.6348 1.93737 19.0106 1.92138 19.3942 1.60693L20.1881 0.962211C20.5797 0.645141 20.9554 0.637188 21.3577 0.962211L22.149 1.60693C22.538 1.92138 22.7324 2.34763 22.7324 2.83255V14.3578H14.6386Z" fill="#F9F7F8"/>
<path fill-rule="evenodd" clip-rule="evenodd" d="M19.5967 1.4418L20.1881 0.962306C20.5797 0.645236 20.9553 0.637283 21.3576 0.962306L22.149 1.60702C22.538 1.92147 22.7324 2.34772 22.7324 2.83264V14.3579H20.3852V2.83255C20.3852 2.34763 20.1881 1.92138 19.799 1.60693L19.5967 1.4418Z" fill="#EBE8FA"/>
<path fill-rule="evenodd" clip-rule="evenodd" d="M7.29608 17.6479H21.4828C21.8957 17.6479 22.234 17.9864 22.234 18.3992V27.0472C22.234 27.4602 21.8957 27.7985 21.4828 27.7985H7.29608C6.88311 27.7985 6.5448 27.4602 6.5448 27.0472V18.3992C6.54489 17.9864 6.8832 17.6479 7.29608 17.6479Z" fill="#BFE2FF"/>
<path fill-rule="evenodd" clip-rule="evenodd" d="M19.1331 17.6479H21.4828C21.8958 17.6479 22.2341 17.9864 22.2341 18.3992V27.0472C22.2341 27.4602 21.8958 27.7985 21.4828 27.7985H19.1331C19.546 27.7985 19.8843 27.4602 19.8843 27.0472V18.3992C19.8843 17.9864 19.546 17.6479 19.1331 17.6479Z" fill="#96D0FF"/>
<path d="M7.19226 34.142C6.83533 34.142 6.54492 33.8276 6.54492 33.4386C6.54492 33.0497 6.83533 32.7326 7.19226 32.7326H9.90976C10.2668 32.7326 10.5545 33.0497 10.5545 33.4386C10.5545 33.8276 10.2668 34.142 9.90976 34.142H7.19226ZM18.8694 41.4738C18.5124 41.4738 18.222 41.1567 18.222 40.7678C18.222 40.3788 18.5124 40.0644 18.8694 40.0644H21.5868C21.9438 40.0644 22.2342 40.3787 22.2342 40.7678C22.2342 41.1567 21.9438 41.4738 21.5868 41.4738H18.8694ZM13.0321 41.4738C12.6725 41.4738 12.3847 41.1567 12.3847 40.7678C12.3847 40.3788 12.6725 40.0644 13.0321 40.0644H15.7469C16.1038 40.0644 16.3943 40.3787 16.3943 40.7678C16.3943 41.1567 16.1038 41.4738 15.7469 41.4738H13.0321ZM7.19226 41.4738C6.83533 41.4738 6.54492 41.1567 6.54492 40.7678C6.54492 40.3788 6.83533 40.0644 7.19226 40.0644H9.90976C10.2668 40.0644 10.5545 40.3787 10.5545 40.7678C10.5545 41.1567 10.2668 41.4738 9.90976 41.4738H7.19226ZM18.8694 37.8078C18.5124 37.8078 18.222 37.4935 18.222 37.1044C18.222 36.7128 18.5124 36.3984 18.8694 36.3984H21.5868C21.9438 36.3984 22.2342 36.7128 22.2342 37.1044C22.2342 37.4934 21.9438 37.8078 21.5868 37.8078H18.8694ZM13.0321 37.8078C12.6725 37.8078 12.3847 37.4935 12.3847 37.1044C12.3847 36.7128 12.6725 36.3984 13.0321 36.3984H15.7469C16.1038 36.3984 16.3943 36.7128 16.3943 37.1044C16.3943 37.4934 16.1038 37.8078 15.7469 37.8078H13.0321ZM7.19226 37.8078C6.83533 37.8078 6.54492 37.4935 6.54492 37.1044C6.54492 36.7128 6.83533 36.3984 7.19226 36.3984H9.90976C10.2668 36.3984 10.5545 36.7128 10.5545 37.1044C10.5545 37.4934 10.2668 37.8078 9.90976 37.8078H7.19226ZM18.8694 34.142C18.5124 34.142 18.222 33.8276 18.222 33.4386C18.222 33.0497 18.5124 32.7326 18.8694 32.7326H21.5868C21.9438 32.7326 22.2342 33.0497 22.2342 33.4386C22.2342 33.8276 21.9438 34.142 21.5868 34.142H18.8694ZM13.0321 34.142C12.6725 34.142 12.3847 33.8276 12.3847 33.4386C12.3847 33.0497 12.6725 32.7326 13.0321 32.7326H15.7469C16.1038 32.7326 16.3943 33.0497 16.3943 33.4386C16.3943 33.8276 16.1038 34.142 15.7469 34.142H13.0321Z" fill="#95D6A4"/>
<path d="M4.66644 15.0638C4.2749 15.0638 3.96045 14.7467 3.96045 14.3578C3.96045 13.9687 4.2749 13.6544 4.66644 13.6544H24.1124C24.5013 13.6544 24.8184 13.9687 24.8184 14.3578C24.8184 14.7467 24.5013 15.0638 24.1124 15.0638H4.66644Z" fill="#22A6FE"/>
<path d="M9.07056 9.53817C8.68155 9.53817 8.36719 9.22391 8.36719 8.8348C8.36719 8.44325 8.68155 8.1288 9.07056 8.1288H19.7086C20.0976 8.1288 20.4119 8.44325 20.4119 8.8348C20.4119 9.22381 20.0975 9.53817 19.7086 9.53817H9.07056ZM9.07056 6.71953C8.68155 6.71953 8.36719 6.40246 8.36719 6.01353C8.36719 5.62452 8.68155 5.31016 9.07056 5.31016H14.3882C14.7799 5.31016 15.0942 5.62452 15.0942 6.01353C15.0942 6.40246 14.7798 6.71953 14.3882 6.71953H9.07056Z" fill="#F37C7C"/>
<path fill-rule="evenodd" clip-rule="evenodd" d="M31.8439 21.7509H34.5695C34.9824 21.7509 35.3208 22.0892 35.3208 22.5021V25.2275C35.3208 25.6405 34.9824 25.9788 34.5695 25.9788H31.8439C31.4311 25.9788 31.0927 25.6405 31.0927 25.2275V22.5021C31.0927 22.0892 31.4311 21.7509 31.8439 21.7509Z" fill="#F37C7C"/>
<path d="M32.502 28.5153C32.502 28.1262 32.819 27.8093 33.2079 27.8093C33.5969 27.8093 33.9113 28.1262 33.9113 28.5153V33.6384C33.9113 34.0274 33.5969 34.3418 33.2079 34.3418C32.8189 34.3418 32.502 34.0275 32.502 33.6384V28.5153Z" fill="#365E7D"/>
</svg>
