<svg width="41" height="41" viewBox="0 0 41 41" fill="none" xmlns="http://www.w3.org/2000/svg">
<path d="M24.4308 0H4.48357C3.38859 0 2.49268 0.895912 2.49268 1.9909V39.0091C2.49268 40.1041 3.38859 41 4.48357 41H24.4307C25.5257 41 26.4216 40.1041 26.4216 39.0091V30.2228V15.0837V1.9909C26.4216 0.895912 25.5257 0 24.4308 0Z" fill="#E4EAF8"/>
<path d="M4.14268 39.009V1.9909C4.14268 0.895912 5.0386 0 6.13358 0H4.48357C3.38859 0 2.49268 0.895912 2.49268 1.9909V39.0091C2.49268 40.1041 3.38859 41 4.48357 41H6.13358C5.0386 40.9999 4.14268 40.104 4.14268 39.009Z" fill="#D8DCE5"/>
<path d="M15.7573 3.75974H13.1571C12.8154 3.75974 12.5383 3.48275 12.5383 3.14097C12.5383 2.7992 12.8153 2.52221 13.1571 2.52221H15.7573C16.099 2.52221 16.3761 2.7992 16.3761 3.14097C16.3761 3.48275 16.099 3.75974 15.7573 3.75974Z" fill="#C3C8D1"/>
<path d="M23.2429 6.20404H5.67124C5.39137 6.20404 5.16443 6.43098 5.16443 6.71085V33.6741C5.16443 33.9539 5.39137 34.1809 5.67124 34.1809H23.243C23.5229 34.1809 23.7498 33.9539 23.7498 33.6741V30.2229V15.0837V6.71085C23.7497 6.43098 23.5229 6.20404 23.2429 6.20404Z" fill="#5BDDFC"/>
<path d="M6.81444 33.6741V6.71085C6.81444 6.43098 7.04138 6.20404 7.32125 6.20404H5.67124C5.39137 6.20404 5.16443 6.43098 5.16443 6.71085V33.6741C5.16443 33.9539 5.39137 34.1809 5.67124 34.1809H7.32125C7.04138 34.1808 6.81444 33.9539 6.81444 33.6741Z" fill="#00C3FF"/>
<path d="M23.2429 6.20404H5.67124C5.39137 6.20404 5.16443 6.43098 5.16443 6.71085V10.1276H23.7497V6.71085C23.7497 6.43098 23.5229 6.20404 23.2429 6.20404Z" fill="#00C3FF"/>
<path d="M8.78427 6.20404H5.67124C5.39137 6.20404 5.16443 6.43098 5.16443 6.71085V10.1276H8.78427V6.20404Z" fill="#FF5050"/>
<path d="M6.81444 6.77371C6.81444 6.5165 6.97219 6.29637 7.19617 6.20412H5.67124C5.39137 6.20412 5.16443 6.43106 5.16443 6.71093V10.1277H6.81444V6.77371Z" fill="#ED3A3A"/>
<path d="M16.2113 38.7628H12.7029C12.2038 38.7628 11.7954 38.3544 11.7954 37.8552V37.3299C11.7954 36.8308 12.2038 36.4224 12.7029 36.4224H16.2113C16.7104 36.4224 17.1188 36.8308 17.1188 37.3299V37.8552C17.1189 38.3544 16.7105 38.7628 16.2113 38.7628Z" fill="#C3C8D1"/>
<path d="M16.1839 37.5926H12.7304C12.3398 37.5926 12.0036 37.3496 11.8644 37.0075C11.8202 37.1157 11.7954 37.2338 11.7954 37.3574V37.8278C11.7954 38.3421 12.2161 38.7628 12.7304 38.7628H16.1839C16.6982 38.7628 17.1189 38.3421 17.1189 37.8278V37.3574C17.1189 37.2338 17.0941 37.1157 17.05 37.0075C16.9106 37.3496 16.5745 37.5926 16.1839 37.5926Z" fill="#B0B3B7"/>
<path d="M37.5465 30.2229H15.4181C14.8896 30.2229 14.4572 29.7904 14.4572 29.2619V16.0447C14.4572 15.5161 14.8896 15.0837 15.4181 15.0837H37.5464C38.075 15.0837 38.5074 15.5161 38.5074 16.0447V29.2619C38.5075 29.7904 38.075 30.2229 37.5465 30.2229Z" fill="#707487"/>
<path d="M16.1072 29.2329V16.0737C16.1072 15.5293 16.5526 15.0837 17.0972 15.0837H15.4472C14.9027 15.0837 14.4572 15.5292 14.4572 16.0737V29.2329C14.4572 29.7774 14.9026 30.2229 15.4472 30.2229H17.0972C16.5526 30.2229 16.1072 29.7773 16.1072 29.2329Z" fill="#5E6377"/>
<path d="M38.5072 17.9511H14.4574V21.8471H38.5072V17.9511Z" fill="#868B9B"/>
<path d="M16.1074 17.9511H14.4574V21.8471H16.1074V17.9511Z" fill="#707487"/>
<path d="M34.4335 27.5356H30.9251C30.426 27.5356 30.0176 27.1272 30.0176 26.6281V26.1028C30.0176 25.6036 30.426 25.1952 30.9251 25.1952H34.4335C34.9326 25.1952 35.341 25.6036 35.341 26.1028V26.6281C35.341 27.1272 34.9326 27.5356 34.4335 27.5356Z" fill="#FFC850"/>
<path d="M34.406 26.3654H30.9524C30.5618 26.3654 30.2257 26.1224 30.0864 25.7803C30.0423 25.8886 30.0175 26.0066 30.0175 26.1302V26.6006C30.0175 27.1149 30.4382 27.5356 30.9524 27.5356H34.406C34.9202 27.5356 35.341 27.1149 35.341 26.6006V26.1302C35.341 26.0066 35.3161 25.8886 35.272 25.7803C35.1328 26.1224 34.7966 26.3654 34.406 26.3654Z" fill="#F9B428"/>
</svg>
