<svg width="22" height="22" viewBox="0 0 22 22" fill="none" xmlns="http://www.w3.org/2000/svg">
<g clip-path="url(#clip0)">
<path d="M6.87585 19.9421C15.1782 19.9421 19.7183 13.0639 19.7183 7.09959C19.7183 6.90421 19.7143 6.70968 19.7056 6.51615C20.5868 5.87901 21.3528 5.08391 21.9571 4.17888C21.1484 4.53841 20.2779 4.78028 19.365 4.88955C20.2969 4.33062 21.0124 3.44673 21.3498 2.39299C20.4777 2.90996 19.5119 3.2856 18.4836 3.48853C17.66 2.61119 16.4873 2.0625 15.1888 2.0625C12.6963 2.0625 10.6749 4.08388 10.6749 6.57557C10.6749 6.9299 10.7145 7.27432 10.7919 7.60481C7.04051 7.41598 3.71395 5.62002 1.48796 2.88881C1.10041 3.55583 0.876833 4.33078 0.876833 5.1576C0.876833 6.72344 1.67377 8.106 2.88546 8.91469C2.14492 8.89186 1.44936 8.6886 0.841249 8.35022C0.840578 8.36918 0.840578 8.38765 0.840578 8.40779C0.840578 10.5938 2.39635 12.419 4.46188 12.8326C4.08254 12.9358 3.6834 12.9914 3.27167 12.9914C2.9813 12.9914 2.69831 12.9628 2.42321 12.9099C2.99792 14.7034 4.6643 16.0084 6.63986 16.045C5.095 17.2558 3.14881 17.9771 1.03377 17.9771C0.669878 17.9771 0.310349 17.9563 -0.0429688 17.9146C1.95458 19.195 4.32676 19.9422 6.87602 19.9422" fill="white"/>
</g>
<defs>
<clipPath id="clip0">
<rect width="22" height="22" fill="white"/>
</clipPath>
</defs>
</svg>
