<svg width="41" height="41" viewBox="0 0 41 41" fill="none" xmlns="http://www.w3.org/2000/svg">
<path d="M20.6299 16.0438C22.1863 16.0438 23.6202 14.9755 24.5042 13.8331C24.3742 13.8204 24.0548 13.7511 23.9313 13.7196C23.1075 14.7018 22.0375 14.8757 20.6553 14.8757C19.273 14.8757 18.0124 14.7423 17.1886 13.7601C17.065 13.7916 16.9389 13.8165 16.8088 13.8293C17.6929 14.9717 19.0736 16.0438 20.6299 16.0438Z" fill="#E6E7E8"/>
<path d="M27.2552 16.4496C26.4541 17.2222 25.52 17.8523 24.4909 18.3051C24.4244 18.3368 24.3547 18.3653 24.285 18.3938C23.161 18.8624 21.9261 19.1189 20.631 19.1189C19.3359 19.1189 18.101 18.8624 16.9738 18.3938C16.9041 18.3653 16.8345 18.3368 16.7679 18.3051C15.7389 17.8523 14.8048 17.219 14.0037 16.4464L14.0227 16.1995C14.1208 14.8727 15.2259 13.8404 16.559 13.8404C16.6445 13.8404 16.7268 13.8373 16.8091 13.8278C17.6925 14.9709 19.0731 15.7119 20.631 15.7119C22.1857 15.7119 23.5663 14.9709 24.4497 13.8278C24.532 13.8373 24.6175 13.8404 24.6998 13.8404C26.0329 13.8404 27.1412 14.8727 27.2362 16.1995L27.2552 16.4496Z" fill="#D5693C"/>
<path d="M22.1586 11.2995V10.5177H19.1014V11.2995C19.1014 12.4859 18.2877 13.4795 17.1887 13.76C18.0125 14.7423 19.2478 15.3678 20.63 15.3678C22.0122 15.3678 23.2475 14.7423 24.0713 13.76C22.9724 13.4795 22.1586 12.4859 22.1586 11.2995Z" fill="#FFD25A"/>
<path d="M18.3124 16.0438C18.3124 16.0438 15.6938 16.0165 16.7576 13.2343C16.7576 13.2343 17.6948 11.9796 16.5034 9.1974C16.5034 9.1974 15.8176 7.09366 17.2018 5.38743C18.277 4.06191 20.105 3.55898 21.6764 4.22534C22.4132 4.5378 23.157 5.12978 23.6509 6.22426C23.6509 6.22426 25.2094 9.68072 22.6162 12.7514L22.0242 11.851L19.0293 11.9C19.0293 11.9 19.3999 13.3693 18.4998 14.0785C17.5996 14.7877 18.1487 15.6347 18.3124 16.0438Z" fill="#304651"/>
<path d="M23.6509 8.41997C23.1065 11.638 21.3147 12.4634 20.7055 12.6536C20.5723 12.6951 20.4291 12.6951 20.2959 12.6536C19.6867 12.4634 17.8946 11.638 17.3491 8.41997L17.978 5.99886H23.022L23.6509 8.41997Z" fill="#FDD96F"/>
<path d="M18.0396 10.6703C18.0396 10.6703 18.0835 10.723 18.1606 10.8052C18.3874 11.0469 18.9015 11.544 19.4307 11.7068C19.4307 11.7068 17.7942 10.7522 18.0396 8.18817C18.0396 8.18817 19.4307 8.18817 20.3854 7.39715C20.3854 7.39715 20.0581 8.16089 18.7216 8.51549C18.7216 8.51549 20.4672 8.84281 21.4492 7.28804C21.4492 7.28804 21.2147 8.16089 20.5 8.46094C20.5 8.46094 21.4961 8.37429 22.4857 7.12439C22.4857 7.12439 23.7404 8.15982 22.8676 9.98789C22.8676 9.98789 23.2007 9.6552 23.4061 9.3297C23.4283 9.29446 23.449 9.25931 23.4677 9.22468C23.6586 8.87008 23.4677 10.5067 23.4677 10.5067L23.9314 8.37911L23.0566 5.84904L19.949 5.76056H17.7512L17.085 7.61536L17.3491 9.35222L18.0396 10.6703Z" fill="#304651"/>
<path d="M29.7922 31.6109C29.954 32.6166 30.8254 33.3882 31.8761 33.3882C32.9267 33.3882 33.7982 32.6166 33.9599 31.6108C33.589 31.3527 33.6057 30.9977 33.6057 30.9977V29.8984H30.1465L30.1379 31.0296C30.1379 31.0296 30.1632 31.3527 29.7922 31.6109Z" fill="#D6B24E"/>
<path d="M34.6023 25.5818C34.6017 25.5818 34.6011 25.7704 34.6006 25.7704C34.5637 24.271 33.3526 22.8676 31.8763 22.8676C30.3999 22.8676 29.1888 24.271 29.152 25.7704C29.1514 25.7704 29.1508 25.5818 29.1502 25.5818C28.8492 25.5818 28.6052 26.262 28.6052 26.8687C28.6052 27.4754 28.8492 27.9672 29.1502 27.9672V28.0064C29.1502 28.7559 29.8031 29.7041 30.4698 30.4771C31.2132 31.3389 32.5393 31.3389 33.2827 30.4771C33.9494 29.7041 34.6023 28.7559 34.6023 28.0064V27.9672C34.9033 27.9672 35.1473 27.4754 35.1473 26.8687C35.1473 26.262 34.9033 25.5818 34.6023 25.5818Z" fill="#FFD25A"/>
<path d="M34.044 32.6277L33.5512 34.0788L32.5412 37.0381C32.533 37.0408 32.5248 37.0436 32.5167 37.0408C32.4976 37.0436 32.4786 37.0463 32.4568 37.0436L32.3288 36.7522L32.0484 36.1098L32.0185 33.3818L32.0076 32.4616L32.3697 32.0914L32.5602 31.8981L33.3062 32.2656H33.3089L33.6411 32.429L33.897 32.5542L34.044 32.6277Z" fill="#E6E7E8"/>
<path d="M38.9501 33.0306C37.8039 34.9718 35.8818 36.3983 33.6086 36.8829C33.3445 36.9401 33.0777 36.9864 32.8054 37.0136L33.1539 35.8348L33.5514 34.0788L33.5541 34.0597L33.8971 32.5542L33.987 32.1703L34.6622 31.4162H34.6649C34.7765 31.4407 38.0353 32.1703 38.9501 33.0306Z" fill="#344E5C"/>
<path d="M33.6107 30.877L31.8743 31.7812L33.2287 32.6271L33.6107 30.877Z" fill="#DAD7DC"/>
<path d="M31.7408 32.4616L31.7299 33.3818L31.6999 36.1098L31.4195 36.7522L31.2916 37.0436C31.2725 37.0463 31.2507 37.0436 31.2317 37.0408C31.2235 37.0436 31.2153 37.0408 31.2072 37.0381L30.1862 34.0434V34.0407L29.7043 32.6277L29.8486 32.5569L30.11 32.429L30.4421 32.2656L31.1881 31.8981L31.3787 32.0914L31.7408 32.4616Z" fill="#E6E7E8"/>
<path d="M30.9487 37.0136C30.6737 36.9864 30.4042 36.9401 30.1401 36.8829C27.8668 36.3956 25.9447 34.969 24.7986 33.0306C25.7188 32.1676 28.9721 31.4407 29.0838 31.4162H29.0865L29.7617 32.1703L29.8488 32.5542V32.5569L30.1864 34.0407V34.0434L30.5948 35.8348L30.9487 37.0136Z" fill="#344E5C"/>
<path d="M30.1379 30.877L31.8743 31.7812L30.5199 32.6271L30.1379 30.877Z" fill="#DAD7DC"/>
<path d="M32.5167 37.0408C32.4976 37.0436 32.4786 37.0463 32.4568 37.0436C32.3942 37.0517 32.3288 37.0572 32.2608 37.0572C32.1328 37.0654 32.0049 37.068 31.8742 37.068C31.7435 37.068 31.6156 37.0654 31.4876 37.0572C31.4223 37.0572 31.3569 37.0517 31.2916 37.0436C31.2725 37.0463 31.2507 37.0436 31.2317 37.0408L31.297 36.1914L31.5203 33.3546L31.5638 32.8019L31.2398 32.1785L31.3787 32.0914L31.8742 31.7837L32.3697 32.0914L32.5085 32.1785L32.1846 32.8019L32.2281 33.3573L32.4514 36.1914L32.5167 37.0408Z" fill="#F37735"/>
<path d="M31.4877 37.0572C31.4223 37.0572 31.357 37.0517 31.2917 37.0435C31.2726 37.0463 31.2508 37.0435 31.2318 37.0408C31.2236 37.0435 31.2154 37.0408 31.2073 37.0381C31.1201 37.0354 31.0357 37.0272 30.9486 37.0136C30.6736 36.9864 30.4041 36.9401 30.14 36.8829L28.8169 34.3292L29.5955 33.8746L28.708 33.3845L29.0837 31.4162H29.0864L30.1373 30.8771H30.14V30.8798L30.1455 30.9016L30.4422 32.2656L30.5212 32.6277L30.5892 32.9435V32.9462L31.2971 36.1914L31.4196 36.7522L31.4877 37.0572Z" fill="#293B44"/>
<path d="M34.1529 33.8746L34.9315 34.3292L33.6084 36.8829C33.3443 36.9401 33.0775 36.9864 32.8052 37.0136C32.7181 37.0245 32.631 37.0354 32.5412 37.0381C32.533 37.0408 32.5248 37.0435 32.5167 37.0408C32.4976 37.0435 32.4785 37.0463 32.4568 37.0435C32.3941 37.0517 32.3288 37.0572 32.2607 37.0572L32.3288 36.7522L32.4513 36.1914L33.1564 32.9516L33.2272 32.6249L33.3062 32.2656L33.6057 30.8907L33.6084 30.8798V30.8771H33.6111L34.662 31.4162H34.6647L35.0431 33.3845L34.1529 33.8746Z" fill="#293B44"/>
<path d="M28.6736 26.412C28.7765 26.8027 28.992 27.1022 29.0201 27.7677H29.1952C29.1477 27.4827 29.0787 26.7678 29.3117 25.686C29.3117 25.686 29.8397 25.642 30.4118 25.0479C30.4118 25.0479 30.2578 25.5099 29.8837 25.752C29.8837 25.752 30.7638 25.466 31.7979 24.4539C31.7979 24.4539 31.7099 25.0699 30.6978 25.686C30.6978 25.686 32.1059 25.466 32.81 24.5419C32.81 24.5419 32.524 25.1799 31.8419 25.576C31.8419 25.576 33.184 25.3559 33.7781 24.2118C33.7781 24.2118 34.3501 24.1458 34.4161 25.1359C34.4821 26.126 34.4601 26.412 34.6581 26.566L34.5596 27.7677H34.6841C34.7482 27.4328 34.923 26.6006 35.0982 26.478C35.0982 26.478 35.6702 23.7058 34.4601 23.1777C34.4601 23.1777 34.0421 21.3516 31.2259 22.0337C28.4096 22.7157 28.5196 24.6519 28.5196 24.6519C28.5196 24.6519 28.5636 25.994 28.6736 26.412Z" fill="#344E5C"/>
<path d="M7.0437 31.5192C7.20542 32.5249 8.07688 33.2965 9.12752 33.2965C10.1782 33.2965 11.0496 32.5249 11.2113 31.5191C10.8404 31.261 10.8571 30.906 10.8571 30.906V29.8067H7.39793L7.38932 30.9851C7.38932 30.9851 7.41465 31.261 7.0437 31.5192Z" fill="#D6B24E"/>
<path d="M11.8538 25.4901C11.8532 25.4901 11.8526 25.6787 11.852 25.6787C11.8152 24.1793 10.6041 22.7759 9.12772 22.7759C7.65137 22.7759 6.44021 24.1793 6.40342 25.6787C6.40285 25.6787 6.40228 25.4901 6.40169 25.4901C6.10068 25.4901 5.85669 26.1703 5.85669 26.777C5.85669 27.3837 6.10068 27.8755 6.40169 27.8755V27.9147C6.40169 28.6642 7.05457 29.6124 7.7213 30.3854C8.46469 31.2472 9.79072 31.2472 10.5341 30.3854C11.2009 29.6124 11.8538 28.6642 11.8538 27.9147V27.8755C12.1547 27.8755 12.3987 27.3837 12.3987 26.777C12.3987 26.1703 12.1547 25.4901 11.8538 25.4901Z" fill="#FFD25A"/>
<path d="M11.2955 32.536L10.8027 33.987L9.79265 36.9464C9.78447 36.9491 9.77631 36.9518 9.76814 36.9491C9.74908 36.9518 9.73002 36.9546 9.70825 36.9518L9.58028 36.6605L9.29988 36.018L9.26992 33.2901L9.25903 32.3699L9.62113 31.9996L9.81171 31.8063L10.5577 32.1739H10.5604L10.8925 32.3372L11.1484 32.4625L11.2955 32.536Z" fill="#E6E7E8"/>
<path d="M16.2015 32.9389C15.0554 34.88 13.1333 36.3066 10.86 36.7912C10.5959 36.8484 10.3291 36.8947 10.0569 36.9219L10.4054 35.7431L10.8028 33.9871L10.8056 33.968L11.1486 32.4625L11.2385 32.0786L11.9136 31.3245H11.9164C12.028 31.349 15.2868 32.0786 16.2015 32.9389Z" fill="#4388B9"/>
<path d="M10.8621 30.7852L9.12573 31.6895L10.4802 32.5354L10.8621 30.7852Z" fill="#DAD7DC"/>
<path d="M8.99225 32.3699L8.98135 33.2901L8.9514 36.018L8.67099 36.6605L8.54303 36.9518C8.52397 36.9546 8.50219 36.9518 8.48314 36.9491C8.47497 36.9518 8.46681 36.9491 8.45863 36.9464L7.4377 33.9516V33.9489L6.95581 32.536L7.10011 32.4652L7.36148 32.3372L7.69361 32.1739L8.43957 31.8063L8.63015 31.9996L8.99225 32.3699Z" fill="#E6E7E8"/>
<path d="M8.20015 36.9219C7.92517 36.8947 7.65565 36.8484 7.39157 36.7912C5.11828 36.3039 3.19621 34.8773 2.05005 32.9389C2.97025 32.0759 6.22362 31.349 6.33525 31.3245H6.33797L7.01314 32.0786L7.10027 32.4625V32.4652L7.43785 33.9489V33.9517L7.84623 35.7431L8.20015 36.9219Z" fill="#4388B9"/>
<path d="M7.3894 30.7852L9.12581 31.6895L7.77136 32.5354L7.3894 30.7852Z" fill="#DAD7DC"/>
<path d="M9.76816 36.9491C9.7491 36.9519 9.73004 36.9546 9.70828 36.9519C9.64565 36.96 9.58031 36.9655 9.51225 36.9655C9.3843 36.9737 9.25633 36.9763 9.12566 36.9763C8.99498 36.9763 8.86702 36.9737 8.73907 36.9655C8.67372 36.9655 8.60838 36.96 8.54304 36.9519C8.52398 36.9546 8.5022 36.9519 8.48315 36.9491L8.54849 36.0997L8.77174 33.2629L8.81529 32.7102L8.49131 32.0868L8.63016 31.9997L9.12566 31.692L9.62116 31.9997L9.76 32.0868L9.43603 32.7102L9.47958 33.2656L9.70283 36.0997L9.76816 36.9491Z" fill="#DB584D"/>
<path d="M8.73914 36.9655C8.67379 36.9655 8.60845 36.96 8.54311 36.9518C8.52406 36.9546 8.50227 36.9518 8.48323 36.9491C8.47505 36.9518 8.46689 36.9491 8.45872 36.9464C8.3716 36.9437 8.2872 36.9355 8.20008 36.9219C7.9251 36.8947 7.65558 36.8484 7.39151 36.7912L6.06838 34.2375L6.84701 33.7829L5.95947 33.2928L6.33518 31.3245H6.3379L7.38878 30.7854H7.39151V30.7881L7.39694 30.8099L7.6937 32.1739L7.77264 32.536L7.84071 32.8518V32.8545L8.54856 36.0997L8.67108 36.6605L8.73914 36.9655Z" fill="#509FD7"/>
<path d="M11.4046 33.7829L12.1832 34.2375L10.8601 36.7912C10.596 36.8484 10.3292 36.8947 10.0569 36.9219C9.96983 36.9328 9.8827 36.9437 9.79288 36.9464C9.7847 36.9491 9.77654 36.9518 9.76837 36.9491C9.74931 36.9518 9.73025 36.9546 9.70848 36.9518C9.64585 36.96 9.58051 36.9655 9.51245 36.9655L9.58051 36.6605L9.70303 36.0997L10.4081 32.8599L10.4789 32.5332L10.5579 32.1739L10.8574 30.799L10.8601 30.7881V30.7854H10.8628L11.9137 31.3245H11.9164L12.2948 33.2928L11.4046 33.7829Z" fill="#509FD7"/>
<path d="M6.42283 27.8453C6.42283 27.8453 5.5694 25.8894 6.17899 24.0474C6.17899 24.0474 6.56216 22.2845 8.63477 21.9886C8.63477 21.9886 10.1326 21.7117 11.2299 23.4777C11.2299 23.4777 13.3547 24.1803 11.9091 27.8453C11.9091 27.8453 12.101 26.9301 11.7352 26.2085C11.3695 25.4869 11.299 24.9091 11.299 24.9091C11.299 24.9091 10.9686 24.4082 9.95845 24.6171C8.94827 24.826 8.00776 24.5601 8.00776 24.5601C8.00776 24.5601 6.99758 24.2183 6.92792 25.4716C6.92792 25.4716 6.75375 26.2882 6.54475 26.573C6.33574 26.8579 6.42283 27.8453 6.42283 27.8453Z" fill="#344E5C"/>
<path d="M26.5841 25.3312H25.7917C25.6712 24.7639 25.4592 24.2318 25.1762 23.7454L25.7661 23.2107C25.947 23.0467 25.9608 22.7672 25.7968 22.5864L24.8742 21.5683C24.7102 21.3876 24.4307 21.3737 24.2498 21.5378L23.6594 22.073C23.0617 21.6417 22.375 21.3269 21.6289 21.1684V20.3759C21.6289 20.1318 21.4309 19.9339 21.1868 19.9339H19.813C19.5689 19.9339 19.3709 20.1318 19.3709 20.3759V21.1684C18.5794 21.3364 17.8549 21.6808 17.2327 22.1534L16.6286 21.6326C16.4436 21.4733 16.1645 21.494 16.0051 21.6789L15.1082 22.7194C14.9487 22.9043 14.9694 23.1834 15.1544 23.3429L15.7541 23.8599C15.5045 24.3146 15.319 24.809 15.2081 25.3312H14.4157C14.1715 25.3312 13.9736 25.5292 13.9736 25.7733V27.147C13.9736 27.3913 14.1715 27.5892 14.4157 27.5892H15.2081C15.3286 28.1564 15.5407 28.6887 15.8236 29.1749L15.2337 29.7097C15.0528 29.8736 15.039 30.1532 15.203 30.334L16.1256 31.352C16.2896 31.5328 16.5691 31.5466 16.75 31.3826L17.3404 30.8475C17.9381 31.2788 18.6248 31.5936 19.3709 31.752V32.5444C19.3709 32.7885 19.5689 32.9865 19.813 32.9865H21.1868C21.4309 32.9865 21.6289 32.7885 21.6289 32.5444V31.752C22.4204 31.5839 23.1449 31.2397 23.7671 30.7669L24.3712 31.2877C24.5561 31.4473 24.8353 31.4265 24.9947 31.2416L25.8917 30.2011C26.0511 30.016 26.0304 29.737 25.8455 29.5775L25.2457 29.0605C25.4954 28.6059 25.6808 28.1114 25.7917 27.5892H26.5841C26.8283 27.5892 27.0262 27.3913 27.0262 27.147V25.7733C27.0262 25.5292 26.8283 25.3312 26.5841 25.3312ZM20.4999 28.4214C19.4168 28.4214 18.5388 27.5433 18.5388 26.4602C18.5388 25.377 19.4168 24.4991 20.4999 24.4991C21.583 24.4991 22.4611 25.377 22.4611 26.4602C22.4611 27.5433 21.583 28.4214 20.4999 28.4214Z" fill="#328270"/>
<path d="M20.5001 22.5605C18.3463 22.5605 16.6003 24.3064 16.6003 26.4603C16.6003 28.6139 18.3463 30.36 20.5001 30.36C22.6539 30.36 24.3999 28.6139 24.3999 26.4603C24.3999 24.3064 22.6539 22.5605 20.5001 22.5605ZM20.5001 29.2964C18.9337 29.2964 17.6638 28.0266 17.6638 26.4602C17.6638 24.8938 18.9337 23.6239 20.5001 23.6239C22.0665 23.6239 23.3364 24.8938 23.3364 26.4602C23.3364 28.0266 22.0665 29.2964 20.5001 29.2964Z" fill="#48B19A"/>
</svg>
